<svg width="705" height="808" viewBox="0 0 705 808" fill="none" xmlns="http://www.w3.org/2000/svg">
<path fill-rule="evenodd" clip-rule="evenodd" d="M4.70681 395.416C27.7968 310.515 149.997 309.21 203.537 240.767C251.915 178.922 227.836 68.7308 293.046 26.8155C359.103 -15.6447 453.54 -4.32992 520.087 37.2951C582.92 76.5975 595.63 162.39 622.935 233.162C643.289 285.918 647.176 339.752 658.258 395.416C673.162 470.284 721.88 542.477 698.974 615.127C673.518 695.864 609.289 764.319 532.657 793.774C454.762 823.714 368.601 801.516 290.512 772.127C214.58 743.55 147.682 695.996 97.6621 630.066C46.0132 561.989 -17.9867 478.859 4.70681 395.416Z" fill="white"/>
</svg>
